<?xml version="1.0" standalone="no"?>
<!DOCTYPE svg PUBLIC "-//W3C//DTD SVG 20010904//EN"
 "http://www.w3.org/TR/2001/REC-SVG-20010904/DTD/svg10.dtd">
<svg version="1.0" xmlns="http://www.w3.org/2000/svg"
 width="200.000000pt" height="200.000000pt" viewBox="0 0 200.000000 200.000000"
 preserveAspectRatio="xMidYMid meet">
<metadata>
Created by potrace 1.10, written by Peter Selinger 2001-2011
</metadata>
<g transform="translate(0.000000,200.000000) scale(0.100000,-0.100000)"
fill="#000000" stroke="none">
<path d="M864 1915 c-125 -27 -222 -102 -270 -208 -24 -53 -28 -76 -28 -152
-1 -107 10 -143 101 -338 83 -177 97 -240 81 -367 -14 -121 -24 -130 -200
-200 -187 -74 -282 -125 -349 -188 -48 -44 -62 -65 -75 -109 -14 -50 -14 -56
1 -79 43 -65 247 -119 552 -145 190 -16 671 -7 808 15 199 32 308 69 358 123
26 28 27 33 18 73 -25 114 -131 190 -430 310 -169 69 -186 83 -196 175 -17
160 -10 192 95 415 79 170 94 224 88 329 -15 258 -259 410 -554 346z m282 -41
c151 -41 244 -169 244 -333 -1 -96 -14 -140 -90 -301 -97 -205 -104 -230 -98
-353 6 -117 23 -165 67 -196 17 -12 97 -49 178 -82 198 -81 257 -114 326 -180
56 -54 58 -58 55 -100 -3 -37 -8 -47 -37 -66 -116 -78 -443 -119 -871 -110
-347 8 -604 43 -718 100 -44 22 -47 26 -50 66 -3 35 2 50 30 86 53 69 137 117
352 205 225 90 235 102 243 274 7 133 1 156 -92 356 -79 169 -99 241 -92 336
13 181 133 294 332 313 87 8 154 4 221 -15z"/>
<path d="M880 1774 c-68 -29 -121 -98 -135 -177 -11 -58 12 -77 90 -77 68 0
81 8 94 57 16 59 112 52 119 -9 2 -20 -10 -40 -51 -84 -30 -33 -62 -73 -71
-91 -18 -35 -22 -108 -6 -118 7 -4 5 -14 -5 -28 -23 -33 -20 -132 5 -157 28
-28 122 -28 150 0 25 25 28 124 6 156 -12 17 -13 27 -2 58 14 41 23 52 85 109
64 58 81 93 81 161 0 69 -26 117 -88 160 -80 55 -198 72 -272 40z m230 -50
c137 -74 145 -205 19 -301 -51 -39 -79 -77 -79 -110 0 -16 -9 -18 -60 -18 -34
0 -60 4 -60 10 0 42 28 95 80 150 82 88 92 148 30 180 -64 33 -140 1 -140 -60
0 -24 -2 -25 -65 -25 -63 0 -65 1 -65 25 0 34 26 94 53 124 63 68 187 79 287
25z m-50 -549 l0 -65 -65 0 -65 0 0 65 0 65 65 0 65 0 0 -65z"/>
</g>
</svg>
