<?xml version="1.0" standalone="no"?>
<!DOCTYPE svg PUBLIC "-//W3C//DTD SVG 20010904//EN"
 "http://www.w3.org/TR/2001/REC-SVG-20010904/DTD/svg10.dtd">
<svg version="1.0" xmlns="http://www.w3.org/2000/svg"
 width="1200.000000pt" height="675.000000pt" viewBox="0 0 1200.000000 675.000000"
 preserveAspectRatio="xMidYMid meet">
<metadata>
Created by potrace 1.16, written by Peter Selinger 2001-2019
</metadata>
<g transform="translate(0.000000,675.000000) scale(0.100000,-0.100000)"
fill="#000000" stroke="none">
<path d="M4575 4589 c-262 -45 -463 -144 -633 -311 -254 -249 -378 -641 -342
-1082 18 -218 58 -372 137 -530 109 -216 305 -402 529 -500 400 -175 962 -136
1307 91 88 58 229 196 287 282 145 216 219 482 220 788 1 458 -164 830 -465
1053 -78 57 -230 134 -324 164 -207 65 -496 84 -716 45z m415 -583 c118 -43
220 -149 278 -289 111 -264 88 -653 -49 -869 -33 -52 -106 -123 -159 -155 -64
-39 -144 -56 -249 -51 -82 3 -106 8 -164 36 -198 92 -309 327 -310 652 -1 268
70 470 208 592 45 40 127 84 182 98 54 13 210 5 263 -14z"/>
<path d="M9285 4595 c-230 -37 -422 -114 -567 -227 -245 -192 -387 -459 -439
-827 -18 -132 -6 -420 24 -556 55 -247 152 -433 310 -593 240 -244 607 -362
1026 -331 417 31 745 220 934 537 178 300 232 726 142 1109 -136 576 -580 907
-1208 902 -78 -1 -178 -7 -222 -14z m409 -603 c126 -59 220 -173 269 -327 43
-133 51 -192 50 -345 0 -122 -5 -161 -27 -245 -52 -201 -142 -328 -280 -395
-58 -29 -82 -35 -159 -38 -154 -8 -240 23 -345 121 -189 180 -249 596 -134
928 26 73 92 178 141 222 96 87 187 118 327 113 78 -3 102 -8 158 -34z"/>
<path d="M1190 4565 c0 -3 189 -383 420 -845 l420 -840 0 -390 0 -390 365 0
365 0 0 390 0 390 420 840 c231 462 420 842 420 845 0 3 -170 5 -379 5 l-379
0 -65 -152 c-36 -84 -116 -270 -177 -413 -62 -143 -129 -298 -149 -344 -20
-47 -41 -86 -46 -88 -6 -1 -33 52 -62 120 -29 67 -102 237 -163 377 -61 140
-134 310 -163 377 l-52 123 -387 0 c-214 0 -388 -2 -388 -5z"/>
<path d="M6360 3335 l0 -1235 845 0 845 0 0 285 0 285 -480 0 -480 0 -2 948
-3 947 -362 3 -363 2 0 -1235z"/>
</g>
</svg>
